<?xml version="1.0" encoding="utf-8"?>
<!-- Generator: Adobe Illustrator 23.0.3, SVG Export Plug-In . SVG Version: 6.00 Build 0)  -->
<svg version="1.1" id="Layer_1" xmlns="http://www.w3.org/2000/svg" xmlns:xlink="http://www.w3.org/1999/xlink" x="0px" y="0px"
	 viewBox="0 0 1200 1200" enable-background="new 0 0 1200 1200" xml:space="preserve">
<g>
	<path fill="#A26663" d="M1149.982,707.054c-0.268,1.607-11.016,2.895-29.896,3.915c-12.012-11.208-64.85-33.577-92.334-35.932
		c-26.531-2.274-30.302,26.536-30.714,38.8c-14.074,0.136-28.825,0.245-44.181,0.327c14.891-13.278,24.277-32.6,24.277-54.12
		c0-40.042-32.46-72.502-72.502-72.502c-40.042,0-72.502,32.46-72.502,72.502c0,21.641,9.493,41.054,24.528,54.338
		c-222.367-0.073-503.147-3.487-584.59-4.54c16.383-15.34,26.635-37.148,26.635-61.362c0-21.373-7.991-40.871-21.129-55.705
		c7.139-4.224,17.749-8.63,32.18-9.832c29.786-2.482,53.367-3.723,53.367-3.723s-3.723-34.751,80.672-63.296
		c84.395-28.546,99.289-38.475,120.387-39.716s40.956-2.482,40.956-2.482s-12.411,88.119,34.751,88.119
		c47.163,0,219.676,8.687,219.676,8.687s-3.723-16.134,14.893-12.411C893.073,561.845,1152.465,692.161,1149.982,707.054z"/>
	<path fill="#363F3F" d="M817.585,568.492c-4.635-12.211-8.702-28.066,3.254-24.429c10.982,3.341,10.033,15.384,7.293,24.932
		C824.809,568.836,821.284,568.668,817.585,568.492z M639.888,561.845c2.008,0,4.258,0.017,6.697,0.047
		c-2.531-8.796-15.384-21.146-15.384-21.146s11.17-8.688,4.965-27.304c-3.975-11.925-20.671-8.572-32.167-4.621
		C605.532,533.392,613.086,561.845,639.888,561.845z M752.828,553.156c-7.125,2.376-11.39,7.303-13.921,11.802
		c19.21,0.805,38.595,1.672,56.046,2.476C783.328,560.435,763.08,549.74,752.828,553.156z M307.271,698.366l155.138-2.482
		l2.482-69.502L309.754,612.73C308.513,617.694,307.271,698.366,307.271,698.366z M1027.752,675.038
		c-33.625-2.881-30.696,44.19-30.696,44.19s112.562,2.943,124.248-2.759C1132.99,710.767,1061.377,677.919,1027.752,675.038z
		 M836.051,613.598c3.22-2.269-2.005-7.374-4.942-5.58c-16.669,10.182-28.998,25.483-33.708,44.673
		c-0.575,2.341-1.058,4.832-1.437,7.398c-28.56-2.39-58.068,0.185-86.711-0.364c-5.424-0.104-4.797,6.767,0.196,7.014
		c28.241,1.392,57.47,4.792,85.72,2.5c-0.254,10.577,1.923,21.369,8.766,28.722c1.44,1.548,6.106,2.604,5.895-0.87
		c-1.055-17.37-6.352-32.079-0.386-49.555C814.283,633.363,823.915,622.151,836.051,613.598z M214.637,564.414
		c-1.174,0-2.338,0.041-3.5,0.089l-4.395-15.07l71.984-11.169l23.581,22.339c0,0-19.857-1.241-27.304,8.688
		c-4.416,5.888,5.571,13.085,14.432,17.968c5.679-2.025,12.414-3.657,20.319-4.316c29.786-2.482,53.367-3.723,53.367-3.723
		s-0.565-5.473,3.986-13.843l-23.844-3.532l-17.375-35.992c0,0,24.822-4.964,14.893-23.581
		c-9.929-18.617-239.533-32.269-274.284-34.751c-34.751-2.482-4.964,64.537,2.482,79.43c7.447,14.894,60.814,14.894,83.154,12.412
		c10.541-1.171,20.251,5.396,27.57,12.658c-28.984,13.266-49.132,42.501-49.132,76.46c0,46.429,37.638,84.066,84.066,84.066
		s84.066-37.637,84.066-84.066S261.065,564.414,214.637,564.414z M904.632,587.543c-40.042,0-72.502,32.46-72.502,72.502
		c0,40.042,32.46,72.502,72.502,72.502c40.042,0,72.502-32.46,72.502-72.502C977.134,620.003,944.674,587.543,904.632,587.543z
		 M781.92,603.541c3.89-0.112,2.001-5.767-1.095-6.006c-27.041-2.092-54.173-2.492-81.289-2.923
		c-29.152-0.463-61.271,2.077-87.943-11.876c-4.06-2.124-7.543,2.652-3.375,5.05c24.942,14.352,53.001,13.892,80.916,14.715
		C720.054,603.413,750.993,604.43,781.92,603.541z M484.047,645.378c0.473-4.721-7.637-6.209-8.596-1.492
		c-3.045,14.98-4.942,32.542-0.311,47.447c1.641,5.28,10.713,3.453,10.336-1.981C484.434,674.343,482.535,660.484,484.047,645.378z"
		/>
	<path fill="#CEE0DE" d="M679.326,693.094c-1.254,8.429-12.65,5.535-11.7-2.627c3.788-32.501-32.002-45.113-57.101-51.034
		c-23.179-5.468-46.608-10.067-69.965-14.702c-51.91-10.301-103.949-20.443-156.05-29.724c-6.104-1.088-3.631-8.494,1.939-7.849
		c65.179,7.548,129.45,18.273,193.643,31.874C619.162,627.309,687.551,637.835,679.326,693.094z M556.615,556.519
		c7.801-0.631,15.678,5.273,13.321,13.631c-1.164,4.129-4.523,7.678-8.668,8.865c-6.396,1.833-15.543-2.691-12.136-10.445
		c1.317-2.998-4.169-6.709-6.119-3.785c-5.892,8.833-1.186,20.614,9.059,23.394c9.352,2.538,19.471-2.086,24.818-9.879
		c4.829-7.039,5.714-16.711,0.282-23.689c-5.403-6.941-17.237-10.861-24.303-4.001C550.215,553.185,553.671,556.757,556.615,556.519
		z M460.29,530.955c31.442,1.501,63.552,5.813,95.018,4.258c4.845-0.24,7.617-7.855,1.636-8.566
		c-31.993-3.806-65.157-1.495-97.346-1.921C455.239,524.667,456.696,530.783,460.29,530.955z M1055.145,658.973
		c-16.723-9.407-37.705-12.478-55.685-18.881c-4.796-1.707-5.344,4.445-1.335,6.181c17.474,7.57,35.747,16.511,54.824,18.837
		C1056.711,665.57,1058.65,660.945,1055.145,658.973z M614.896,689.644c-14.982-3.929-32.797-1.262-48.167-0.787
		c-18.628,0.575-37.245,1.344-55.874,1.851c-4.296,0.116-2.113,6.568,1.465,6.563c19.095-0.026,38.183,0.221,57.279,0.281
		c15.334,0.047,31.234,1.131,46.291-2.163C619.168,694.672,617.206,690.25,614.896,689.644z M867.793,557.673
		c-10.917,1.056-8.229,12.859-8.229,12.859s-8.104-0.408-21.265-1.047c0.194-14.768,2.055-32.63,9.578-36.81
		C856.346,527.971,863.615,544.783,867.793,557.673z M214.637,619.493c-16.01,0-28.988,12.978-28.988,28.988
		s12.978,28.989,28.988,28.989s28.988-12.979,28.988-28.989S230.647,619.493,214.637,619.493z M904.632,635.044
		c-13.807,0-25.001,11.193-25.001,25.001c0,13.807,11.193,25,25.001,25c13.807,0,25.001-11.193,25.001-25
		C929.633,646.237,918.44,635.044,904.632,635.044z"/>
	<path fill="#899FAD" d="M904.632,613.793c-25.544,0-46.251,20.708-46.251,46.251c0,25.543,20.707,46.251,46.251,46.251
		s46.251-20.707,46.251-46.251C950.883,634.501,930.176,613.793,904.632,613.793z M904.632,685.045
		c-13.807,0-25.001-11.193-25.001-25c0-13.808,11.193-25.001,25.001-25.001c13.807,0,25.001,11.193,25.001,25.001
		C929.633,673.852,918.44,685.045,904.632,685.045z M214.637,594.852c-29.618,0-53.629,24.01-53.629,53.629
		s24.011,53.629,53.629,53.629s53.628-24.01,53.628-53.629S244.255,594.852,214.637,594.852z M214.637,677.469
		c-16.01,0-28.988-12.979-28.988-28.989s12.978-28.988,28.988-28.988s28.988,12.978,28.988,28.988S230.647,677.469,214.637,677.469z
		 M244.522,535.98c-54.155,14.017-113.864,7.524-168.271-1.755c-4.763-0.813-5.427-7.716-0.027-6.946
		c28.675,4.091,57.795,5.697,86.753,5.314c26.433-0.351,53.204-4.065,79.588-2.919C245.312,529.795,248.191,535.031,244.522,535.98z
		 M332.199,663.111c0.402,7.476,2.446,14.351-0.274,21.451c-0.726,1.895-2.712,2.131-4.252,0.925
		c-5.433-4.255-5.038-9.581-5.496-16.21c-0.724-10.481-0.22-20.731,1.141-31.133c0.638-4.883,8.981-3.722,8.802,1.085
		C331.823,647.18,331.772,655.162,332.199,663.111z M360.293,664.979c0.487,7.284,2.691,14.22-2.906,19.647
		c-0.605,0.587-1.338,0.815-2.067,0.249c-5.495-4.265-4.499-9.335-4.683-16.085c-0.256-9.401-0.033-18.712,0.321-28.105
		c0.152-4.025,6.169-2.192,6.608,0.873C358.682,649.355,359.767,657.117,360.293,664.979z M380.188,665.424
		c0.419,6.295,2.043,11.54-1.833,16.771c-0.84,1.133-2.18,0.484-2.916-0.313c-4.25-4.594-3.898-9.34-3.887-15.499
		c0.014-7.09,0.416-14.122,1.122-21.176c0.444-4.433,7.04-2.585,6.988,1.214C379.576,652.769,379.766,659.09,380.188,665.424z
		 M446.203,655.781c-1.053-5.489-3.088-10.208-6.907-12.258c-9.709-5.209-27.479-1.191-38.047-0.666
		c-4.066,0.206-3.13,3.365-2.865,6.346c0.787,8.854-1.018,21.365,4.2,29.18c6.274,9.395,30.339,3.842,39.829,3.544
		C450.906,681.659,447.323,661.62,446.203,655.781z M428.573,675.09c-5.261-0.017-13.318,2.585-16.858-2.897
		c-1.607-2.49-1.774-22.435-4-22.458c8.08,0,16.099-1.238,24.195-1.075c9.918,0.199,7.912,20.1,7.215,26.338
		C435.685,675.388,432.071,675.102,428.573,675.09z"/>
</g>
</svg>
